<svg width="36" height="31" viewBox="0 0 36 31" fill="none" xmlns="http://www.w3.org/2000/svg">
<path d="M19.8015 6.018C25.5046 6.018 28.74 10.212 29.2106 15.278H29.3546C33.0247 15.278 36 18.576 36 22.643C36 26.711 33.0247 30.008 29.3546 30.008H10.2483C6.57826 30.008 3.60296 26.711 3.60296 22.643C3.60296 18.657 6.46126 15.41 10.0287 15.282L10.3932 15.278C10.8666 10.179 14.0984 6.018 19.8015 6.018ZM19.8015 8.513C15.9676 8.513 12.6242 11.961 12.6242 16.723C12.6242 17.478 12.0339 18.07 11.358 18.07H10.0791C7.74371 18.07 5.85108 20.184 5.85108 22.792C5.85108 25.399 7.74371 27.513 10.0782 27.513H29.5229C31.8584 27.513 33.7501 25.399 33.7501 22.792C33.7501 20.184 31.8584 18.07 29.5229 18.07H28.245C27.5682 18.07 26.9778 17.478 26.9778 16.724C26.9778 11.9 23.6362 8.513 19.8015 8.513ZM14.399 1.08805e-06C15.7794 -0.000735623 17.1391 0.372655 18.3603 1.0878C19.5815 1.80295 20.6273 2.83827 21.407 4.104C20.3798 3.96907 19.3422 3.96336 18.3138 4.087C17.2271 3.04015 15.8373 2.46328 14.399 2.462C11.4435 2.462 8.92447 4.885 8.42049 8.158L8.1379 9.988C8.1022 10.2208 7.99352 10.432 7.83111 10.5843C7.6687 10.7365 7.46304 10.8201 7.25053 10.82H5.49829C3.64166 10.82 2.13691 12.53 2.13691 14.641C2.13691 15.747 2.5509 16.743 3.21058 17.441C2.81921 18.0915 2.50351 18.7944 2.27101 19.533C1.30172 18.6918 0.592912 17.5353 0.243459 16.225C-0.105994 14.9147 -0.0786616 13.5158 0.321642 12.2236C0.721946 10.9314 1.47526 9.81023 2.47649 9.01651C3.47773 8.2228 4.67695 7.79612 5.90688 7.796H6.03468C6.38234 5.61166 7.41119 3.63313 8.94068 2.20755C10.4702 0.78197 12.4026 0.000410999 14.399 1.08805e-06Z" fill="#30638B"/>
</svg>
