<svg width="39" height="42" viewBox="0 0 39 42" fill="none" xmlns="http://www.w3.org/2000/svg">
<path d="M19.312 22.191C19.312 15.321 10.156 1 10.156 1C10.156 1 1 15.32 1 22.191C1 24.6193 1.96465 26.9482 3.68173 28.6653C5.39881 30.3824 7.72768 31.347 10.156 31.347C12.5843 31.347 14.9132 30.3824 16.6303 28.6653C18.3474 26.9482 19.312 24.6193 19.312 22.191ZM37.094 8.95C37.094 6.546 33.891 1.537 33.891 1.537C33.891 1.537 30.689 6.546 30.689 8.949C30.6815 9.37432 30.7588 9.79688 30.9163 10.192C31.0739 10.5871 31.3086 10.9469 31.6067 11.2504C31.9048 11.5538 32.2604 11.7948 32.6527 11.9593C33.045 12.1239 33.4661 12.2086 33.8915 12.2086C34.3169 12.2086 34.738 12.1239 35.1303 11.9593C35.5226 11.7948 35.8782 11.5538 36.1763 11.2504C36.4744 10.9469 36.7091 10.5871 36.8667 10.192C37.0242 9.79688 37.1015 9.37532 37.094 8.95ZM33.146 24.628C33.146 21.233 28.621 14.155 28.621 14.155C28.621 14.155 24.096 21.233 24.096 24.628C24.096 25.8281 24.5727 26.9791 25.4213 27.8277C26.2699 28.6763 27.4209 29.153 28.621 29.153C29.8211 29.153 30.9721 28.6763 31.8207 27.8277C32.6693 26.9791 33.146 25.8281 33.146 24.628ZM24.406 36.947C24.406 34.657 21.353 29.882 21.353 29.882C21.353 29.882 18.301 34.657 18.301 36.947C18.2937 37.3525 18.3672 37.7554 18.5173 38.1322C18.6674 38.509 18.8911 38.8521 19.1753 39.1414C19.4594 39.4308 19.7984 39.6606 20.1724 39.8175C20.5464 39.9744 20.9479 40.0553 21.3535 40.0553C21.7591 40.0553 22.1606 39.9744 22.5346 39.8175C22.9086 39.6606 23.2476 39.4308 23.5317 39.1414C23.8159 38.8521 24.0396 38.509 24.1897 38.1322C24.3398 37.7554 24.4133 37.3525 24.406 36.947Z" stroke="#30638B" stroke-width="2" stroke-linecap="round" stroke-linejoin="round"/>
</svg>
