<svg width="36" height="35" viewBox="0 0 36 35" fill="none" xmlns="http://www.w3.org/2000/svg">
<path d="M9 8.55524C9 6.8741 9.44866 5.23071 10.2893 3.83289C11.1298 2.43508 12.3246 1.34561 13.7225 0.702265C15.1203 0.0589197 16.6585 -0.109409 18.1424 0.218566C19.6264 0.54654 20.9895 1.35609 22.0594 2.54483C23.1292 3.73358 23.8578 5.24813 24.153 6.89697C24.4482 8.54581 24.2967 10.2549 23.7177 11.8081C23.1387 13.3612 22.1581 14.6887 20.9001 15.6227C19.6421 16.5567 18.163 17.0552 16.65 17.0552H1.35C0.991958 17.0552 0.64858 16.8972 0.395406 16.6159C0.142232 16.3346 0 15.9531 0 15.5552C0 15.1574 0.142232 14.7759 0.395406 14.4946C0.64858 14.2133 0.991958 14.0552 1.35 14.0552H16.65C17.629 14.0552 18.586 13.7327 19.4001 13.1283C20.2141 12.524 20.8485 11.665 21.2232 10.66C21.5979 9.65501 21.6959 8.54914 21.5049 7.48224C21.3139 6.41535 20.8424 5.43534 20.1502 4.66615C19.4579 3.89696 18.5759 3.37314 17.6157 3.16092C16.6555 2.9487 15.6602 3.05762 14.7557 3.4739C13.8512 3.89019 13.0781 4.59513 12.5342 5.4996C11.9903 6.40407 11.7 7.46744 11.7 8.55524C11.7 8.95307 11.5578 9.3346 11.3046 9.6159C11.0514 9.8972 10.708 10.0552 10.35 10.0552C9.99196 10.0552 9.64858 9.8972 9.39541 9.6159C9.14223 9.3346 9 8.95307 9 8.55524ZM24.3882 16.9792C24.7045 15.5728 25.4349 14.3243 26.4633 13.4321C27.4916 12.5399 28.7589 12.0553 30.0636 12.0552H30.15C31.7015 12.0552 33.1895 12.7401 34.2866 13.959C35.3837 15.178 36 16.8313 36 18.5552C36 20.2791 35.3837 21.9324 34.2866 23.1514C33.1895 24.3704 31.7015 25.0552 30.15 25.0552H28.0773C28.4449 25.7657 28.6776 26.5524 28.7611 27.3667C28.8446 28.1809 28.777 29.0056 28.5626 29.7897C28.3482 30.5739 27.9915 31.3009 27.5145 31.926C27.0375 32.5511 26.4503 33.061 25.7891 33.4242C25.1279 33.7874 24.4067 33.9963 23.6701 34.0379C22.9335 34.0796 22.197 33.9531 21.506 33.6663C20.8151 33.3795 20.1843 32.9384 19.6527 32.3703C19.1211 31.8023 18.6998 31.1192 18.4149 30.3632L18.3285 30.1322C18.2603 29.9504 18.225 29.7553 18.2247 29.5583C18.2243 29.3613 18.2589 29.1661 18.3264 28.9839C18.3939 28.8017 18.4931 28.6361 18.6182 28.4965C18.7433 28.3569 18.892 28.246 19.0557 28.1702C19.2194 28.0945 19.3949 28.0553 19.5722 28.0549C19.7496 28.0545 19.9252 28.0929 20.0892 28.1679C20.2532 28.2429 20.4022 28.3531 20.5279 28.4921C20.6535 28.6312 20.7533 28.7964 20.8215 28.9782L20.9079 29.2082C21.0957 29.7096 21.4025 30.1449 21.7956 30.4677C22.1886 30.7905 22.6531 30.9887 23.1396 31.0412C23.6261 31.0937 24.1162 30.9985 24.5578 30.7657C24.9994 30.5329 25.3758 30.1713 25.647 29.7195C25.9181 29.2676 26.0738 28.7425 26.0974 28.2001C26.121 27.6576 26.0116 27.1183 25.781 26.6395C25.5503 26.1607 25.207 25.7605 24.7877 25.4814C24.3684 25.2024 23.8888 25.0551 23.4 25.0552H1.35C0.991958 25.0552 0.64858 24.8972 0.395406 24.6159C0.142232 24.3346 0 23.9531 0 23.5552C0 23.1574 0.142232 22.7759 0.395406 22.4946C0.64858 22.2133 0.991958 22.0552 1.35 22.0552H30.15C30.5637 22.0552 30.9733 21.9647 31.3555 21.7888C31.7376 21.6129 32.0849 21.3551 32.3774 21.0301C32.6699 20.7051 32.9019 20.3193 33.0602 19.8946C33.2185 19.47 33.3 19.0149 33.3 18.5552C33.3 18.0956 33.2185 17.6405 33.0602 17.2158C32.9019 16.7912 32.6699 16.4054 32.3774 16.0804C32.0849 15.7554 31.7376 15.4976 31.3555 15.3217C30.9733 15.1458 30.5637 15.0552 30.15 15.0552H30.0636C29.361 15.0551 28.6786 15.316 28.1248 15.7963C27.571 16.2767 27.1776 16.9489 27.0072 17.7062L26.9595 17.9192C26.9186 18.1128 26.8435 18.2954 26.7385 18.4564C26.6335 18.6174 26.5008 18.7537 26.348 18.8572C26.1952 18.9607 26.0255 19.0294 25.8486 19.0594C25.6717 19.0893 25.4912 19.0799 25.3176 19.0316C25.144 18.9834 24.9808 18.8973 24.8374 18.7783C24.694 18.6593 24.5734 18.5099 24.4825 18.3386C24.3915 18.1674 24.3322 17.9777 24.3078 17.7808C24.2834 17.5838 24.2945 17.3834 24.3405 17.1912L24.3882 16.9792Z" fill="#30638B"/>
</svg>
