<svg width="36" height="36" viewBox="0 0 36 36" fill="none" xmlns="http://www.w3.org/2000/svg">
<path d="M16.8 4.8V1.2C16.8 0.88174 16.9264 0.576515 17.1515 0.351472C17.3765 0.126428 17.6817 0 18 0C18.3183 0 18.6235 0.126428 18.8485 0.351472C19.0736 0.576515 19.2 0.88174 19.2 1.2V4.8C19.2 5.11826 19.0736 5.42348 18.8485 5.64853C18.6235 5.87357 18.3183 6 18 6C17.6817 6 17.3765 5.87357 17.1515 5.64853C16.9264 5.42348 16.8 5.11826 16.8 4.8ZM27.6 18C27.6 19.8987 27.037 21.7548 25.9821 23.3335C24.9272 24.9122 23.4279 26.1426 21.6738 26.8692C19.9196 27.5958 17.9894 27.786 16.1271 27.4155C14.2649 27.0451 12.5544 26.1308 11.2118 24.7882C9.86919 23.4456 8.95488 21.7351 8.58446 19.8729C8.21404 18.0107 8.40416 16.0804 9.13076 14.3262C9.85736 12.5721 11.0878 11.0728 12.6665 10.0179C14.2452 8.96303 16.1013 8.4 18 8.4C20.5452 8.40278 22.9854 9.4151 24.7852 11.2148C26.5849 13.0146 27.5972 15.4548 27.6 18ZM25.2 18C25.2 16.576 24.7777 15.1839 23.9866 13.9999C23.1954 12.8159 22.0709 11.893 20.7553 11.3481C19.4397 10.8031 17.992 10.6605 16.5954 10.9383C15.1987 11.2162 13.9158 11.9019 12.9088 12.9088C11.9019 13.9158 11.2162 15.1987 10.9383 16.5954C10.6605 17.992 10.8031 19.4397 11.3481 20.7553C11.893 22.0709 12.8159 23.1954 13.9999 23.9866C15.1839 24.7777 16.576 25.2 18 25.2C19.909 25.198 21.7391 24.4388 23.089 23.089C24.4388 21.7391 25.198 19.909 25.2 18ZM7.551 9.249C7.77617 9.47417 8.08156 9.60067 8.4 9.60067C8.71844 9.60067 9.02383 9.47417 9.249 9.249C9.47417 9.02383 9.60067 8.71844 9.60067 8.4C9.60067 8.08156 9.47417 7.77617 9.249 7.551L6.849 5.151C6.62383 4.92583 6.31844 4.79933 6 4.79933C5.68156 4.79933 5.37617 4.92583 5.151 5.151C4.92583 5.37617 4.79933 5.68156 4.79933 6C4.79933 6.31844 4.92583 6.62383 5.151 6.849L7.551 9.249ZM7.551 26.751L5.151 29.151C4.92583 29.3762 4.79933 29.6816 4.79933 30C4.79933 30.3184 4.92583 30.6238 5.151 30.849C5.37617 31.0742 5.68156 31.2007 6 31.2007C6.31844 31.2007 6.62383 31.0742 6.849 30.849L9.249 28.449C9.36049 28.3375 9.44893 28.2051 9.50927 28.0595C9.56961 27.9138 9.60067 27.7577 9.60067 27.6C9.60067 27.4423 9.56961 27.2862 9.50927 27.1405C9.44893 26.9949 9.36049 26.8625 9.249 26.751C9.13751 26.6395 9.00515 26.5511 8.85948 26.4907C8.7138 26.4304 8.55767 26.3993 8.4 26.3993C8.24233 26.3993 8.0862 26.4304 7.94052 26.4907C7.79485 26.5511 7.66249 26.6395 7.551 26.751ZM27.6 9.6C27.7576 9.60012 27.9137 9.56919 28.0594 9.50896C28.2051 9.44874 28.3375 9.3604 28.449 9.249L30.849 6.849C31.0742 6.62383 31.2007 6.31844 31.2007 6C31.2007 5.68156 31.0742 5.37617 30.849 5.151C30.6238 4.92583 30.3184 4.79933 30 4.79933C29.6816 4.79933 29.3762 4.92583 29.151 5.151L26.751 7.551C26.583 7.71883 26.4685 7.93273 26.4222 8.16563C26.3758 8.39853 26.3996 8.63996 26.4905 8.85935C26.5814 9.07874 26.7353 9.26622 26.9328 9.39806C27.1303 9.52991 27.3625 9.60019 27.6 9.6ZM28.449 26.751C28.2238 26.5258 27.9184 26.3993 27.6 26.3993C27.2816 26.3993 26.9762 26.5258 26.751 26.751C26.5258 26.9762 26.3993 27.2816 26.3993 27.6C26.3993 27.9184 26.5258 28.2238 26.751 28.449L29.151 30.849C29.2625 30.9605 29.3949 31.0489 29.5405 31.1093C29.6862 31.1696 29.8423 31.2007 30 31.2007C30.1577 31.2007 30.3138 31.1696 30.4595 31.1093C30.6051 31.0489 30.7375 30.9605 30.849 30.849C30.9605 30.7375 31.0489 30.6051 31.1093 30.4595C31.1696 30.3138 31.2007 30.1577 31.2007 30C31.2007 29.8423 31.1696 29.6862 31.1093 29.5405C31.0489 29.3949 30.9605 29.2625 30.849 29.151L28.449 26.751ZM6 18C6 17.6817 5.87357 17.3765 5.64853 17.1515C5.42348 16.9264 5.11826 16.8 4.8 16.8H1.2C0.88174 16.8 0.576515 16.9264 0.351472 17.1515C0.126428 17.3765 0 17.6817 0 18C0 18.3183 0.126428 18.6235 0.351472 18.8485C0.576515 19.0736 0.88174 19.2 1.2 19.2H4.8C5.11826 19.2 5.42348 19.0736 5.64853 18.8485C5.87357 18.6235 6 18.3183 6 18ZM18 30C17.6817 30 17.3765 30.1264 17.1515 30.3515C16.9264 30.5765 16.8 30.8817 16.8 31.2V34.8C16.8 35.1183 16.9264 35.4235 17.1515 35.6485C17.3765 35.8736 17.6817 36 18 36C18.3183 36 18.6235 35.8736 18.8485 35.6485C19.0736 35.4235 19.2 35.1183 19.2 34.8V31.2C19.2 30.8817 19.0736 30.5765 18.8485 30.3515C18.6235 30.1264 18.3183 30 18 30ZM34.8 16.8H31.2C30.8817 16.8 30.5765 16.9264 30.3515 17.1515C30.1264 17.3765 30 17.6817 30 18C30 18.3183 30.1264 18.6235 30.3515 18.8485C30.5765 19.0736 30.8817 19.2 31.2 19.2H34.8C35.1183 19.2 35.4235 19.0736 35.6485 18.8485C35.8736 18.6235 36 18.3183 36 18C36 17.6817 35.8736 17.3765 35.6485 17.1515C35.4235 16.9264 35.1183 16.8 34.8 16.8Z" fill="#30638B"/>
</svg>
