<svg width="38" height="38" viewBox="0 0 38 38" fill="none" xmlns="http://www.w3.org/2000/svg">
<path d="M11.8 37H26.2M6.4 31.6H31.6M1 26.2H37" stroke="#30638B" stroke-width="1.5" stroke-linecap="round" stroke-linejoin="round"/>
<path d="M19.0001 8.20001C16.9215 8.1999 14.8871 8.79959 13.1409 9.92713C11.3947 11.0547 10.011 12.6621 9.15588 14.5566C8.30071 16.4511 8.01039 18.5521 8.31978 20.6075C8.62916 22.6629 9.52509 24.5854 10.9001 26.1442H27.1001C28.475 24.5854 29.371 22.6629 29.6803 20.6075C29.9897 18.5521 29.6994 16.4511 28.8442 14.5566C27.9891 12.6621 26.6054 11.0547 24.8592 9.92713C23.1131 8.79959 21.0786 8.1999 19.0001 8.20001Z" stroke="#30638B" stroke-width="1.5"/>
<path d="M19 9.20001V20M19 20L22.6 16.4M19 20L15.4 16.4" stroke="#30638B" stroke-width="2" stroke-linecap="round" stroke-linejoin="round"/>
<path d="M19 1V2.8M37 19H35.2M2.8 19H1M31.726 6.274L31.0204 6.9814M6.9796 6.9796L6.2722 6.2722" stroke="#30638B" stroke-width="1.5" stroke-linecap="round"/>
</svg>
