<svg width="38" height="38" viewBox="0 0 38 38" fill="none" xmlns="http://www.w3.org/2000/svg">
<path d="M11.8 37.0552H26.2M6.4 31.6552H31.6M1 26.2552H37" stroke="#30638B" stroke-width="1.5" stroke-linecap="round" stroke-linejoin="round"/>
<path d="M19.0001 8.25525C16.9215 8.25514 14.8871 8.85483 13.1409 9.98237C11.3947 11.1099 10.011 12.7174 9.15588 14.6119C8.30071 16.5063 8.01039 18.6074 8.31978 20.6628C8.62916 22.7182 9.52509 24.6406 10.9001 26.1994H27.1001C28.475 24.6406 29.371 22.7182 29.6803 20.6628C29.9897 18.6074 29.6994 16.5063 28.8442 14.6119C27.9891 12.7174 26.6054 11.1099 24.8592 9.98237C23.1131 8.85483 21.0786 8.25514 19.0001 8.25525Z" stroke="#30638B" stroke-width="1.5"/>
<path d="M19 15.3323L19.7657 14.39C19.5625 14.1403 19.2871 14 19 14C18.7129 14 18.4375 14.1403 18.2343 14.39L19 15.3323ZM21.1237 19.8305C21.2229 19.9615 21.3426 20.0666 21.4755 20.1395C21.6084 20.2124 21.7519 20.2516 21.8973 20.2547C22.0428 20.2579 22.1873 20.2249 22.3223 20.1579C22.4572 20.0908 22.5797 19.991 22.6826 19.8644C22.7855 19.7377 22.8666 19.5869 22.9211 19.4209C22.9756 19.2548 23.0024 19.077 22.9998 18.8979C22.9973 18.7189 22.9654 18.5423 22.9062 18.3787C22.847 18.2152 22.7616 18.068 22.6551 17.9459L21.1237 19.8305ZM15.3449 17.9459C15.2384 18.068 15.153 18.2152 15.0938 18.3787C15.0346 18.5423 15.0027 18.7189 15.0002 18.8979C14.9976 19.077 15.0244 19.2548 15.0789 19.4209C15.1334 19.5869 15.2145 19.7377 15.3174 19.8644C15.4203 19.991 15.5428 20.0908 15.6777 20.1579C15.8127 20.2249 15.9572 20.2579 16.1027 20.2547C16.2481 20.2516 16.3916 20.2124 16.5245 20.1395C16.6574 20.0666 16.7771 19.9615 16.8763 19.8305L15.3449 17.9459ZM20.0835 26V15.3323H17.9165V26H20.0835ZM18.2343 16.2746L21.1237 19.8305L22.6551 17.9459L19.7657 14.39L18.2343 16.2746ZM18.2343 14.39L15.3449 17.9459L16.8763 19.8305L19.7657 16.2746L18.2343 14.39Z" fill="#30638B"/>
<path d="M19 1.05524V2.85524M37 19.0552H35.2M2.8 19.0552H1M31.726 6.32924L31.0204 7.03664M6.9796 7.03484L6.2722 6.32744" stroke="#30638B" stroke-width="1.5" stroke-linecap="round"/>
</svg>
