<svg width="25" height="18" viewBox="0 0 25 18" fill="none" xmlns="http://www.w3.org/2000/svg">
<path d="M13.701 3.60984C17.5031 3.60984 19.66 6.12557 19.9738 9.16436H20.0698C22.5165 9.16436 24.5 11.1426 24.5 13.5822C24.5 16.0223 22.5165 18 20.0698 18H7.33222C4.8855 18 2.90197 16.0223 2.90197 13.5822C2.90197 11.1912 4.80751 9.24354 7.18582 9.16676L7.42881 9.16436C7.7444 6.10577 9.89892 3.60984 13.701 3.60984ZM13.701 5.10644C11.1451 5.10644 8.91616 7.17469 8.91616 10.0311C8.91616 10.484 8.52257 10.8391 8.07199 10.8391H7.21942C5.66248 10.8391 4.40072 12.1072 4.40072 13.6716C4.40072 15.2353 5.66248 16.5034 7.21882 16.5034H20.182C21.7389 16.5034 23.0001 15.2353 23.0001 13.6716C23.0001 12.1072 21.7389 10.8391 20.182 10.8391H19.33C18.8788 10.8391 18.4852 10.484 18.4852 10.0317C18.4852 7.1381 16.2575 5.10644 13.701 5.10644ZM10.0993 6.52656e-07C11.0196 -0.000441256 11.9261 0.223533 12.7402 0.652507C13.5544 1.08148 14.2515 1.70251 14.7714 2.46174C14.0865 2.3808 13.3948 2.37738 12.7092 2.45155C11.9847 1.8236 11.0582 1.47757 10.0993 1.47681C8.12899 1.47681 6.44965 2.93022 6.11366 4.8935L5.92527 5.9912C5.90147 6.13083 5.82902 6.25753 5.72074 6.34887C5.61247 6.44021 5.47536 6.4903 5.33369 6.49027H4.16553C2.92777 6.49027 1.92461 7.516 1.92461 8.78226C1.92461 9.44568 2.2006 10.0431 2.64038 10.4618C2.37947 10.852 2.16901 11.2736 2.01401 11.7167C1.36781 11.2121 0.895274 10.5184 0.662306 9.7324C0.429338 8.94642 0.447559 8.10735 0.714428 7.33222C0.981297 6.55709 1.4835 5.88457 2.15099 5.40846C2.81848 4.93236 3.61797 4.67642 4.43792 4.67635H4.52312C4.7549 3.3661 5.44079 2.17929 6.46046 1.32418C7.48012 0.469057 8.76842 0.000246534 10.0993 6.52656e-07Z" fill="black"/>
</svg>
