<svg width="19" height="18" viewBox="0 0 19 18" fill="none" xmlns="http://www.w3.org/2000/svg">
<path d="M10.6735 16.4983C10.8839 16.4983 11.0857 16.5774 11.2345 16.7182C11.3833 16.859 11.4669 17.05 11.4669 17.2491C11.4669 17.4483 11.3833 17.6393 11.2345 17.7801C11.0857 17.9209 10.8839 18 10.6735 18C10.4631 18 10.2613 17.9209 10.1125 17.7801C9.96372 17.6393 9.88013 17.4483 9.88013 17.2491C9.88013 17.05 9.96372 16.859 10.1125 16.7182C10.2613 16.5774 10.4631 16.4983 10.6735 16.4983ZM7.89843 15.7485C8.00513 15.7446 8.11156 15.7611 8.21135 15.7971C8.31114 15.833 8.40224 15.8877 8.47919 15.9577C8.55614 16.0278 8.61736 16.1118 8.65917 16.2048C8.70099 16.2978 8.72254 16.3978 8.72254 16.4988C8.72254 16.5999 8.70099 16.6999 8.65917 16.7929C8.61736 16.8859 8.55614 16.9699 8.47919 17.04C8.40224 17.11 8.31114 17.1646 8.21135 17.2006C8.11156 17.2365 8.00513 17.253 7.89843 17.2491C7.69348 17.2416 7.49957 17.1593 7.35737 17.0194C7.21518 16.8795 7.13575 16.6929 7.13575 16.4988C7.13575 16.3047 7.21518 16.1182 7.35737 15.9783C7.49957 15.8384 7.69348 15.756 7.89843 15.7485ZM13.4486 15.7485C13.5553 15.7446 13.6617 15.7611 13.7615 15.7971C13.8613 15.833 13.9524 15.8877 14.0294 15.9577C14.1063 16.0278 14.1675 16.1118 14.2094 16.2048C14.2512 16.2978 14.2727 16.3978 14.2727 16.4988C14.2727 16.5999 14.2512 16.6999 14.2094 16.7929C14.1675 16.8859 14.1063 16.9699 14.0294 17.04C13.9524 17.11 13.8613 17.1646 13.7615 17.2006C13.6617 17.2365 13.5553 17.253 13.4486 17.2491C13.2437 17.2416 13.0498 17.1593 12.9076 17.0194C12.7654 16.8795 12.6859 16.6929 12.6859 16.4988C12.6859 16.3047 12.7654 16.1182 12.9076 15.9783C13.0498 15.8384 13.2437 15.756 13.4486 15.7485ZM10.6735 4.49119C13.6044 4.49119 15.2685 6.26197 15.51 8.40199H15.5838C17.4703 8.40199 19 9.79452 19 11.5124C19 13.2303 17.4703 14.6228 15.5838 14.6228H5.76328C3.87674 14.6228 2.34705 13.2303 2.34705 11.5124C2.34705 9.79452 3.87674 8.40199 5.76328 8.40199H5.83703C6.07969 6.24733 7.74142 4.49119 10.6735 4.49119ZM10.6735 5.61692C8.71086 5.61692 7.00155 7.0466 7.00155 9.02227C7.00155 9.33522 6.69942 9.58063 6.35327 9.58063H5.69905C4.5048 9.57951 3.53655 10.4576 3.53655 11.5383C3.53655 12.619 4.5048 13.4971 5.69905 13.4971H15.648C16.8423 13.4971 17.8105 12.619 17.8105 11.5383C17.8105 10.4576 16.8423 9.57951 15.648 9.57951H14.9938C14.6476 9.58063 14.3455 9.33522 14.3455 9.02227C14.3455 7.02184 12.635 5.61692 10.6735 5.61692ZM2.11272 7.53067C2.15845 7.65548 2.15634 7.79153 2.10676 7.91501C2.05717 8.03849 1.96328 8.14154 1.84151 8.20611L1.74398 8.24664L0.791189 8.55734C0.650582 8.6039 0.49663 8.59884 0.359781 8.54314C0.222931 8.48744 0.113151 8.38517 0.0521504 8.25655C-0.00885 8.12793 -0.0166281 7.98233 0.0303545 7.84854C0.0773371 7.71475 0.175659 7.60252 0.305875 7.53405L0.403413 7.49352L1.35739 7.18282C1.50645 7.13441 1.66973 7.14397 1.81135 7.2094C1.95297 7.27483 2.06137 7.39079 2.11272 7.5318V7.53067ZM8.19937 2.80258C8.59548 2.98495 8.94281 3.22248 9.23899 3.50054C8.75606 3.59398 8.30405 3.73694 7.88772 3.92269C7.3505 3.61666 6.71782 3.49627 6.09736 3.58199C5.4769 3.66772 4.90699 3.95427 4.48463 4.39287C4.06227 4.83148 3.81354 5.39504 3.78079 5.98766C3.74803 6.58027 3.93326 7.16532 4.30496 7.64324C3.91243 7.75356 3.54368 7.91454 3.20468 8.11605C2.7448 7.43808 2.53183 6.63637 2.59826 5.83319C2.66469 5.03 3.00687 4.26942 3.57261 3.66743C4.13835 3.06543 4.89661 2.65508 5.73174 2.49893C6.56688 2.34279 7.43306 2.44943 8.19818 2.80258H8.19937ZM1.05883 2.99396L1.15755 3.02998L2.06395 3.44763C2.19757 3.5091 2.30204 3.61568 2.3568 3.74639C2.41156 3.8771 2.41265 4.02247 2.35984 4.1539C2.30704 4.28533 2.20417 4.39329 2.07148 4.45655C1.93879 4.5198 1.78589 4.53377 1.64287 4.49569L1.54176 4.45967L0.636555 4.04202C0.502934 3.98054 0.398463 3.87397 0.343703 3.74326C0.288942 3.61255 0.287857 3.46717 0.340661 3.33575C0.393465 3.20432 0.496335 3.09635 0.629025 3.0331C0.761714 2.96984 0.914615 2.95588 1.05764 2.99396H1.05883ZM9.47213 0.32034C9.59737 0.378169 9.69718 0.475779 9.75413 0.596138C9.81109 0.716496 9.82158 0.851961 9.78378 0.978894L9.74572 1.07346L9.30441 1.93127C9.23946 2.05772 9.12684 2.15659 8.98873 2.20842C8.85062 2.26024 8.69701 2.26127 8.55814 2.2113C8.41927 2.16132 8.30519 2.06397 8.23835 1.93839C8.17151 1.81282 8.15676 1.66811 8.19699 1.53276L8.23506 1.43707L8.67636 0.579259C8.71062 0.512641 8.75843 0.45308 8.81707 0.40399C8.8757 0.3549 8.94399 0.317248 9.01804 0.293193C9.09208 0.269138 9.17041 0.259153 9.24854 0.263812C9.32667 0.26847 9.40306 0.28768 9.47332 0.32034H9.47213ZM4.96394 0.284316L5.00795 0.376626L5.33626 1.27947C5.38452 1.41236 5.3785 1.55754 5.31939 1.68646C5.26029 1.81537 5.15236 1.9187 5.01684 1.97613C4.88132 2.03355 4.728 2.04093 4.58702 1.99679C4.44605 1.95266 4.32761 1.86022 4.255 1.73764L4.21099 1.64533L3.88388 0.743616C3.83638 0.61103 3.84279 0.466449 3.90186 0.338096C3.96093 0.209743 4.06843 0.106831 4.20336 0.0494498C4.3383 -0.00793118 4.49098 -0.0156626 4.63162 0.0277648C4.77225 0.0711922 4.89074 0.162661 4.96394 0.284316Z" fill="black"/>
</svg>
