<svg width="19" height="19" viewBox="0 0 19 19" fill="none" xmlns="http://www.w3.org/2000/svg">
<path d="M10.5001 1.39532L9.50005 4.32932L8.50005 1.39532C8.44613 1.23641 8.43086 1.06694 8.4555 0.900956C8.48013 0.73497 8.54397 0.577244 8.64173 0.440851C8.73948 0.304457 8.86832 0.193322 9.01759 0.116656C9.16686 0.0399902 9.33225 0 9.50005 0C9.66786 0 9.83325 0.0399902 9.98252 0.116656C10.1318 0.193322 10.2606 0.304457 10.3584 0.440851C10.4561 0.577244 10.52 0.73497 10.5446 0.900956C10.5692 1.06694 10.554 1.23641 10.5001 1.39532ZM1.50005 8.39532L4.43405 9.39532L1.50005 10.3953C1.34115 10.4492 1.17168 10.4645 1.00569 10.4399C0.839706 10.4152 0.681981 10.3514 0.545587 10.2536C0.409193 10.1559 0.298059 10.027 0.221393 9.87778C0.144726 9.72851 0.104736 9.56312 0.104736 9.39532C0.104736 9.22751 0.144726 9.06212 0.221393 8.91286C0.298059 8.76359 0.409193 8.63474 0.545587 8.53699C0.681981 8.43924 0.839706 8.3754 1.00569 8.35076C1.17168 8.32612 1.34115 8.3414 1.50005 8.39532ZM8.50005 17.3953L9.50005 14.4613L10.5001 17.3953C10.554 17.5542 10.5692 17.7237 10.5446 17.8897C10.52 18.0557 10.4561 18.2134 10.3584 18.3498C10.2606 18.4862 10.1318 18.5973 9.98252 18.674C9.83325 18.7506 9.66786 18.7906 9.50005 18.7906C9.33225 18.7906 9.16686 18.7506 9.01759 18.674C8.86832 18.5973 8.73948 18.4862 8.64173 18.3498C8.54397 18.2134 8.48013 18.0557 8.4555 17.8897C8.43086 17.7237 8.44613 17.5542 8.50005 17.3953ZM17.5001 10.3933L14.5661 9.39332L17.5001 8.39332C17.659 8.3394 17.8284 8.32412 17.9944 8.34876C18.1604 8.3734 18.3181 8.43724 18.4545 8.53499C18.5909 8.63274 18.702 8.76159 18.7787 8.91086C18.8554 9.06012 18.8954 9.22551 18.8954 9.39332C18.8954 9.56112 18.8554 9.72651 18.7787 9.87578C18.702 10.025 18.5909 10.1539 18.4545 10.2516C18.3181 10.3494 18.1604 10.4132 17.9944 10.4379C17.8284 10.4625 17.659 10.4472 17.5001 10.3933ZM4.55005 3.03132L5.91705 5.81232L3.13605 4.44532C2.98492 4.37137 2.85363 4.26241 2.75309 4.1275C2.65255 3.9926 2.58567 3.83564 2.558 3.66967C2.53034 3.50371 2.54269 3.33355 2.59404 3.17332C2.64538 3.01309 2.73423 2.86744 2.8532 2.74847C2.97218 2.6295 3.11783 2.54064 3.27806 2.4893C3.43828 2.43796 3.60845 2.4256 3.77441 2.45327C3.94037 2.48093 4.09733 2.54781 4.23224 2.64835C4.36715 2.74889 4.47611 2.88019 4.55005 3.03132ZM3.13605 14.3443L5.91705 12.9773L4.55005 15.7583C4.47611 15.9094 4.36715 16.0407 4.23224 16.1413C4.09733 16.2418 3.94037 16.3087 3.77441 16.3364C3.60845 16.364 3.43828 16.3517 3.27806 16.3003C3.11783 16.249 2.97218 16.1601 2.8532 16.0412C2.73423 15.9222 2.64538 15.7765 2.59404 15.6163C2.54269 15.4561 2.53034 15.2859 2.558 15.12C2.58567 14.954 2.65255 14.797 2.75309 14.6621C2.85363 14.5272 2.98492 14.4183 3.13605 14.3443ZM14.4491 15.7583L13.0821 12.9773L15.8631 14.3443C16.0142 14.4183 16.1455 14.5272 16.246 14.6621C16.3466 14.797 16.4134 14.954 16.4411 15.12C16.4688 15.2859 16.4564 15.4561 16.4051 15.6163C16.3537 15.7765 16.2649 15.9222 16.1459 16.0412C16.0269 16.1601 15.8813 16.249 15.7211 16.3003C15.5608 16.3517 15.3907 16.364 15.2247 16.3364C15.0587 16.3087 14.9018 16.2418 14.7669 16.1413C14.632 16.0407 14.523 15.9094 14.4491 15.7583ZM15.8621 4.44332L13.0801 5.81132L14.4481 3.02932C14.522 2.87819 14.631 2.74689 14.7659 2.64635C14.9008 2.54581 15.0577 2.47893 15.2237 2.45127C15.3897 2.4236 15.5598 2.43596 15.7201 2.4873C15.8803 2.53865 16.0259 2.6275 16.1449 2.74647C16.2639 2.86544 16.3527 3.01109 16.4041 3.17132C16.4554 3.33155 16.4678 3.50171 16.4401 3.66767C16.4124 3.83364 16.3456 3.9906 16.245 4.1255C16.1445 4.26041 16.0132 4.36937 15.8621 4.44332ZM9.50005 13.8953C7.01905 13.8953 5.00005 11.8763 5.00005 9.39532C5.00005 6.91432 7.01905 4.89532 9.50005 4.89532C11.9811 4.89532 14.0001 6.91432 14.0001 9.39532C14.0001 11.8763 11.9811 13.8953 9.50005 13.8953ZM9.50005 6.89532C8.12105 6.89532 7.00005 8.01632 7.00005 9.39532C7.00005 10.7743 8.12105 11.8953 9.50005 11.8953C10.8791 11.8953 12.0001 10.7743 12.0001 9.39532C12.0001 8.01632 10.8791 6.89532 9.50005 6.89532Z" fill="black"/>
</svg>
