<svg width="25" height="18" viewBox="0 0 25 18" fill="none" xmlns="http://www.w3.org/2000/svg">
<path d="M6.5 4.50127C6.5 3.611 6.79911 2.74073 7.35951 2.0005C7.9199 1.26027 8.71641 0.68333 9.64831 0.34264C10.5802 0.00195034 11.6057 -0.0871897 12.595 0.0864926C13.5843 0.260175 14.493 0.688879 15.2062 1.31839C15.9195 1.94791 16.4052 2.74995 16.602 3.62311C16.7988 4.49627 16.6978 5.40133 16.3118 6.22383C15.9258 7.04633 15.2721 7.74933 14.4334 8.24393C13.5947 8.73854 12.6087 9.00253 11.6 9.00253H1.4C1.16131 9.00253 0.932387 8.91884 0.763604 8.76987C0.594821 8.62091 0.5 8.41886 0.5 8.20819C0.5 7.99752 0.594821 7.79548 0.763604 7.64651C0.932387 7.49754 1.16131 7.41385 1.4 7.41385H11.6C12.2527 7.41385 12.8907 7.24303 13.4334 6.92299C13.9761 6.60295 14.399 6.14807 14.6488 5.61586C14.8986 5.08366 14.9639 4.49804 14.8366 3.93305C14.7093 3.36806 14.395 2.84909 13.9335 2.44176C13.4719 2.03443 12.8839 1.75703 12.2438 1.64465C11.6037 1.53227 10.9401 1.58994 10.3371 1.81039C9.73415 2.03084 9.21876 2.40415 8.85615 2.88312C8.49354 3.36209 8.3 3.92521 8.3 4.50127C8.3 4.71194 8.20518 4.91398 8.0364 5.06295C7.86761 5.21192 7.63869 5.29561 7.4 5.29561C7.16131 5.29561 6.93239 5.21192 6.7636 5.06295C6.59482 4.91398 6.5 4.71194 6.5 4.50127ZM16.7588 8.96229C16.9697 8.2175 17.4566 7.55632 18.1422 7.08384C18.8278 6.61137 19.6726 6.35473 20.5424 6.35473H20.6C21.6343 6.35473 22.6263 6.71738 23.3577 7.36291C24.0891 8.00844 24.5 8.88396 24.5 9.79687C24.5 10.7098 24.0891 11.5853 23.3577 12.2308C22.6263 12.8764 21.6343 13.239 20.6 13.239H19.2182C19.4633 13.6153 19.6184 14.0318 19.6741 14.4631C19.7297 14.8943 19.6847 15.331 19.5418 15.7462C19.3988 16.1615 19.161 16.5465 18.843 16.8775C18.525 17.2085 18.1335 17.4785 17.6927 17.6709C17.2519 17.8632 16.7712 17.9739 16.2801 17.9959C15.789 18.0179 15.298 17.951 14.8373 17.7991C14.3767 17.6472 13.9562 17.4136 13.6018 17.1128C13.2474 16.812 12.9665 16.4502 12.7766 16.0499L12.719 15.9276C12.6735 15.8313 12.65 15.728 12.6498 15.6237C12.6495 15.5193 12.6726 15.416 12.7176 15.3195C12.7626 15.223 12.8287 15.1353 12.9121 15.0614C12.9956 14.9874 13.0947 14.9287 13.2038 14.8886C13.3129 14.8485 13.4299 14.8277 13.5482 14.8275C13.6664 14.8273 13.7835 14.8476 13.8928 14.8874C14.0021 14.9271 14.1015 14.9854 14.1853 15.0591C14.269 15.1327 14.3355 15.2202 14.381 15.3165L14.4386 15.4383C14.5638 15.7038 14.7684 15.9343 15.0304 16.1052C15.2924 16.2762 15.6021 16.3812 15.9264 16.4089C16.2507 16.4367 16.5775 16.3863 16.8719 16.263C17.1663 16.1398 17.4172 15.9483 17.598 15.709C17.7787 15.4697 17.8825 15.1916 17.8983 14.9044C17.914 14.6171 17.8411 14.3315 17.6873 14.078C17.5335 13.8244 17.3047 13.6125 17.0251 13.4647C16.7456 13.317 16.4258 13.239 16.1 13.239H1.4C1.16131 13.239 0.932387 13.1553 0.763604 13.0064C0.594821 12.8574 0.5 12.6553 0.5 12.4447C0.5 12.234 0.594821 12.032 0.763604 11.883C0.932387 11.734 1.16131 11.6503 1.4 11.6503H20.6C20.8758 11.6503 21.1489 11.6024 21.4036 11.5092C21.6584 11.4161 21.8899 11.2796 22.0849 11.1075C22.2799 10.9354 22.4346 10.731 22.5401 10.5062C22.6457 10.2813 22.7 10.0403 22.7 9.79687C22.7 9.55347 22.6457 9.31246 22.5401 9.08758C22.4346 8.86271 22.2799 8.65839 22.0849 8.48628C21.8899 8.31417 21.6584 8.17764 21.4036 8.0845C21.1489 7.99135 20.8758 7.94341 20.6 7.94341H20.5424C20.074 7.94335 19.6191 8.08148 19.2499 8.33586C18.8807 8.59023 18.6184 8.94623 18.5048 9.34727L18.473 9.46007C18.4457 9.56258 18.3957 9.65927 18.3257 9.74454C18.2557 9.82981 18.1672 9.90195 18.0654 9.95677C17.9635 10.0116 17.8503 10.048 17.7324 10.0638C17.6144 10.0797 17.4941 10.0747 17.3784 10.0491C17.2627 10.0236 17.1538 9.97799 17.0583 9.91499C16.9627 9.85198 16.8822 9.77284 16.8216 9.68215C16.761 9.59146 16.7214 9.49105 16.7052 9.38674C16.689 9.28243 16.6964 9.17631 16.727 9.07455L16.7588 8.96229Z" fill="black"/>
</svg>
